<svg width="30" height="28" viewBox="0 0 30 28" fill="none" xmlns="http://www.w3.org/2000/svg">
<g filter="url(#filter0_d_2403_5318)">
<path d="M6 6H24V4H6C4.9 4 4 4.9 4 6V18C4 19.1 4.9 20 6 20H10V18H6V6ZM16 12H12V13.78C11.39 14.33 11 15.11 11 16C11 16.89 11.39 17.67 12 18.22V20H16V18.22C16.61 17.67 17 16.88 17 16C17 15.12 16.61 14.33 16 13.78V12ZM14 17.5C13.17 17.5 12.5 16.83 12.5 16C12.5 15.17 13.17 14.5 14 14.5C14.83 14.5 15.5 15.17 15.5 16C15.5 16.83 14.83 17.5 14 17.5ZM25 8H19C18.5 8 18 8.5 18 9V19C18 19.5 18.5 20 19 20H25C25.5 20 26 19.5 26 19V9C26 8.5 25.5 8 25 8ZM24 18H20V10H24V18Z" fill="#4063DF"/>
</g>
<defs>
<filter id="filter0_d_2403_5318" x="-1" y="0" width="32" height="32" filterUnits="userSpaceOnUse" color-interpolation-filters="sRGB">
<feFlood flood-opacity="0" result="BackgroundImageFix"/>
<feColorMatrix in="SourceAlpha" type="matrix" values="0 0 0 0 0 0 0 0 0 0 0 0 0 0 0 0 0 0 127 0" result="hardAlpha"/>
<feOffset dy="4"/>
<feGaussianBlur stdDeviation="2"/>
<feComposite in2="hardAlpha" operator="out"/>
<feColorMatrix type="matrix" values="0 0 0 0 0 0 0 0 0 0 0 0 0 0 0 0 0 0 0.25 0"/>
<feBlend mode="normal" in2="BackgroundImageFix" result="effect1_dropShadow_2403_5318"/>
<feBlend mode="normal" in="SourceGraphic" in2="effect1_dropShadow_2403_5318" result="shape"/>
</filter>
</defs>
</svg>
